<svg width="20" height="20" viewBox="0 0 20 20" fill="none" xmlns="http://www.w3.org/2000/svg">
<path d="M8.84167 7.00829L7.66667 5.83329L3.5 9.99996L7.66667 14.1666L8.84167 12.9916L6.69167 10.8333L14.75 10.8333L14.75 9.16663L6.69167 9.16663L8.84167 7.00829Z" fill="black"/>
<path d="M15.8333 2.5H4.16667C3.24167 2.5 2.5 3.25 2.5 4.16667V7.5H4.16667V4.16667H15.8333V15.8333H4.16667V12.5H2.5V15.8333C2.5 16.75 3.24167 17.5 4.16667 17.5H15.8333C16.75 17.5 17.5 16.75 17.5 15.8333V4.16667C17.5 3.25 16.75 2.5 15.8333 2.5Z" fill="black"/>
</svg>
